<svg width="286" height="148" viewBox="0 0 286 148" fill="none" xmlns="http://www.w3.org/2000/svg">
<g opacity="0.5">
<rect x="0.5" y="0.5" width="285" height="147" stroke="#010101"/>
<g clip-path="url(#clip0)">
<path d="M178.134 36H107V112.886H178.134V36Z" fill="#F7DF1E"/>
<path d="M154.784 96.0673C156.217 98.596 158.081 100.455 161.378 100.455C164.148 100.455 165.917 98.9584 165.917 96.8911C165.917 94.4136 164.099 93.5362 161.051 92.0949L159.379 91.3199C154.556 89.0988 151.351 86.3162 151.351 80.4339C151.351 75.0152 155.171 70.8903 161.141 70.8903C165.391 70.8903 168.446 72.489 170.648 76.675L165.443 80.2874C164.297 78.0663 163.06 77.1912 161.141 77.1912C159.183 77.1912 157.942 78.5337 157.942 80.2874C157.942 82.4548 159.184 83.3323 162.052 84.6748L163.723 85.4485C169.403 88.0809 172.609 90.7646 172.609 96.7983C172.609 103.303 167.882 106.867 161.533 106.867C155.325 106.867 151.314 103.669 149.352 99.4783L154.784 96.0673ZM131.171 96.6934C132.221 98.707 133.176 100.409 135.473 100.409C137.669 100.409 139.054 99.4808 139.054 95.8696V71.3028H145.739V95.9672C145.739 103.448 141.681 106.853 135.757 106.853C130.405 106.853 127.306 103.86 125.73 100.254L131.171 96.6934Z" fill="#010101"/>
</g>
</g>
<defs>
<clipPath id="clip0">
<rect width="71.134" height="76.8857" fill="white" transform="translate(107 36)"/>
</clipPath>
</defs>
</svg>
